<?xml version="1.0" encoding="utf-8"?>
<!-- Generated by Mocodo 4.1.2 -->
<svg width="663" height="279" viewBox="0 0 663 279" xmlns="http://www.w3.org/2000/svg">
<rect x="0" y="0" width="663" height="279" fill="#f7f7f7" stroke="none" stroke-width="0"/>

<!-- Association POSSEDER -->
<g>
	<line x1="170" y1="127" x2="50" y2="127" stroke="#5aae61" stroke-width="2"/>
	<line x1="277" y1="43" x2="50" y2="127" stroke="#5aae61" stroke-width="2"/>
	<g>
		<path d="M77 102 a14 14 90 0 1 14 14 V127 h-82 V116 a14 14 90 0 1 14 -14" fill="#a6dba0" stroke="#a6dba0" stroke-width="0"/>
		<path d="M91 127 v11 a14 14 90 0 1 -14 14 H23 a14 14 90 0 1 -14 -14 V127 H82" fill="#d9f0d3" stroke="#d9f0d3" stroke-width="0"/>
		<rect x="9" y="102" width="82" height="50" fill="none" rx="14" stroke="#5aae61" stroke-width="2"/>
		<line x1="9" y1="127" x2="91" y2="127" stroke="#5aae61" stroke-width="1"/>
		<text x="17" y="119.75" fill="#000000" font-family="Verdana" font-size="12">POSSEDER</text>
	</g>
	<text x="97" y="144" fill="#762a83" font-family="Verdana" font-size="12">1,1</text>
	<line x1="97" y1="146" x2="118" y2="146" stroke="#762a83" stroke-width="1"/>
	<text x="227" y="46.4" fill="#762a83" font-family="Verdana" font-size="12">1,N</text>
</g>

<!-- Association CREER -->
<g>
	<line x1="170" y1="127" x2="277" y2="127" stroke="#5aae61" stroke-width="2"/>
	<line x1="383" y1="127" x2="277" y2="127" stroke="#5aae61" stroke-width="2"/>
	<g>
		<path d="M291 102 a14 14 90 0 1 14 14 V127 h-56 V116 a14 14 90 0 1 14 -14" fill="#a6dba0" stroke="#a6dba0" stroke-width="0"/>
		<path d="M305 127 v11 a14 14 90 0 1 -14 14 H263 a14 14 90 0 1 -14 -14 V127 H56" fill="#d9f0d3" stroke="#d9f0d3" stroke-width="0"/>
		<rect x="249" y="102" width="56" height="50" fill="none" rx="14" stroke="#5aae61" stroke-width="2"/>
		<line x1="249" y1="127" x2="305" y2="127" stroke="#5aae61" stroke-width="1"/>
		<text x="257" y="119.75" fill="#000000" font-family="Verdana" font-size="12">CREER</text>
	</g>
	<text x="222" y="144" fill="#762a83" font-family="Verdana" font-size="12">0,N</text>
	<text x="324" y="144" fill="#762a83" font-family="Verdana" font-size="12">1,1</text>
	<line x1="324" y1="146" x2="345" y2="146" stroke="#762a83" stroke-width="1"/>
</g>

<!-- Association APPARTENIR -->
<g>
	<line x1="383" y1="127" x2="494" y2="127" stroke="#5aae61" stroke-width="2"/>
	<line x1="613" y1="127" x2="494" y2="127" stroke="#5aae61" stroke-width="2"/>
	<g>
		<path d="M526 102 a14 14 90 0 1 14 14 V127 h-92 V116 a14 14 90 0 1 14 -14" fill="#a6dba0" stroke="#a6dba0" stroke-width="0"/>
		<path d="M540 127 v11 a14 14 90 0 1 -14 14 H462 a14 14 90 0 1 -14 -14 V127 H92" fill="#d9f0d3" stroke="#d9f0d3" stroke-width="0"/>
		<rect x="448" y="102" width="92" height="50" fill="none" rx="14" stroke="#5aae61" stroke-width="2"/>
		<line x1="448" y1="127" x2="540" y2="127" stroke="#5aae61" stroke-width="1"/>
		<text x="455" y="119.75" fill="#000000" font-family="Verdana" font-size="12">APPARTENIR</text>
	</g>
	<text x="421" y="144" fill="#762a83" font-family="Verdana" font-size="12">0,N</text>
	<text x="545" y="144" fill="#762a83" font-family="Verdana" font-size="12">0,N</text>
</g>

<!-- Association DONNER -->
<g>
	<line x1="170" y1="127" x2="170" y2="228" stroke="#5aae61" stroke-width="2"/>
	<line x1="277" y1="228" x2="170" y2="228" stroke="#5aae61" stroke-width="2"/>
	<g>
		<path d="M190 203 a14 14 90 0 1 14 14 V228 h-68 V217 a14 14 90 0 1 14 -14" fill="#a6dba0" stroke="#a6dba0" stroke-width="0"/>
		<path d="M204 228 v11 a14 14 90 0 1 -14 14 H150 a14 14 90 0 1 -14 -14 V228 H68" fill="#d9f0d3" stroke="#d9f0d3" stroke-width="0"/>
		<rect x="136" y="203" width="68" height="50" fill="none" rx="14" stroke="#5aae61" stroke-width="2"/>
		<line x1="136" y1="228" x2="204" y2="228" stroke="#5aae61" stroke-width="1"/>
		<text x="143" y="220.75" fill="#000000" font-family="Verdana" font-size="12">DONNER</text>
	</g>
	<text x="175" y="178" fill="#762a83" font-family="Verdana" font-size="12">0,N</text>
	<text x="218" y="245" fill="#762a83" font-family="Verdana" font-size="12">1,1</text>
	<line x1="218" y1="247" x2="239" y2="247" stroke="#762a83" stroke-width="1"/>
</g>

<!-- Association POSSEDER2 -->
<g>
	<line x1="383" y1="127" x2="383" y2="228" stroke="#5aae61" stroke-width="2"/>
	<line x1="277" y1="228" x2="383" y2="228" stroke="#5aae61" stroke-width="2"/>
	<g>
		<path d="M410 203 a14 14 90 0 1 14 14 V228 h-82 V217 a14 14 90 0 1 14 -14" fill="#a6dba0" stroke="#a6dba0" stroke-width="0"/>
		<path d="M424 228 v11 a14 14 90 0 1 -14 14 H356 a14 14 90 0 1 -14 -14 V228 H82" fill="#d9f0d3" stroke="#d9f0d3" stroke-width="0"/>
		<rect x="342" y="203" width="82" height="50" fill="none" rx="14" stroke="#5aae61" stroke-width="2"/>
		<line x1="342" y1="228" x2="424" y2="228" stroke="#5aae61" stroke-width="1"/>
		<text x="350" y="220.75" fill="#000000" font-family="Verdana" font-size="12">POSSEDER</text>
	</g>
	<text x="388" y="178" fill="#762a83" font-family="Verdana" font-size="12">0,N</text>
	<text x="315" y="245" fill="#762a83" font-family="Verdana" font-size="12">1,1</text>
</g>

<!-- Entity ROLE -->
<g>
	<g>
		<rect x="254" y="9" width="46" height="25" fill="#c2a5cf" stroke="none" stroke-width="0" opacity="1"/>
		<rect x="254" y="34" width="46" height="43" fill="#e7d4e8" stroke="none" stroke-width="0" opacity="1"/>
		<rect x="254" y="9" width="46" height="68" fill="none" stroke="#9970ab" stroke-width="2" opacity="1"/>
		<line x1="254" y1="34" x2="300" y2="34" stroke="#9970ab" stroke-width="1"/>
	</g>
	<text x="261" y="26.75" fill="#000000" font-family="Verdana" font-size="12">ROLE</text>
	<text x="259" y="51.8" fill="#000000" font-family="Verdana" font-size="12">id</text>
	<line x1="259" y1="54" x2="271" y2="54" stroke="#000000" stroke-width="1"/>
	<text x="259" y="68.8" fill="#000000" font-family="Verdana" font-size="12">name</text>
</g>

<!-- Entity UTILISATEUR -->
<g>
	<g>
		<rect x="123" y="93" width="94" height="25" fill="#c2a5cf" stroke="none" stroke-width="0" opacity="1"/>
		<rect x="123" y="118" width="94" height="43" fill="#e7d4e8" stroke="none" stroke-width="0" opacity="1"/>
		<rect x="123" y="93" width="94" height="68" fill="none" stroke="#9970ab" stroke-width="2" opacity="1"/>
		<line x1="123" y1="118" x2="217" y2="118" stroke="#9970ab" stroke-width="1"/>
	</g>
	<text x="129" y="110.75" fill="#000000" font-family="Verdana" font-size="12">UTILISATEUR</text>
	<text x="128" y="135.8" fill="#000000" font-family="Verdana" font-size="12">id</text>
	<line x1="128" y1="138" x2="140" y2="138" stroke="#000000" stroke-width="1" stroke-dasharray="4"/>
	<text x="128" y="152.8" fill="#000000" font-family="Verdana" font-size="12">role_id</text>
</g>

<!-- Entity RECETTE -->
<g>
	<g>
		<rect x="350" y="93" width="66" height="25" fill="#c2a5cf" stroke="none" stroke-width="0" opacity="1"/>
		<rect x="350" y="118" width="66" height="43" fill="#e7d4e8" stroke="none" stroke-width="0" opacity="1"/>
		<rect x="350" y="93" width="66" height="68" fill="none" stroke="#9970ab" stroke-width="2" opacity="1"/>
		<line x1="350" y1="118" x2="416" y2="118" stroke="#9970ab" stroke-width="1"/>
	</g>
	<text x="356" y="110.75" fill="#000000" font-family="Verdana" font-size="12">RECETTE</text>
	<text x="355" y="135.8" fill="#000000" font-family="Verdana" font-size="12">id</text>
	<line x1="355" y1="138" x2="367" y2="138" stroke="#000000" stroke-width="1" stroke-dasharray="4"/>
	<text x="355" y="152.8" fill="#000000" font-family="Verdana" font-size="12">user_id</text>
</g>

<!-- Entity CATEGORIE -->
<g>
	<g>
		<rect x="572" y="93" width="82" height="25" fill="#c2a5cf" stroke="none" stroke-width="0" opacity="1"/>
		<rect x="572" y="118" width="82" height="43" fill="#e7d4e8" stroke="none" stroke-width="0" opacity="1"/>
		<rect x="572" y="93" width="82" height="68" fill="none" stroke="#9970ab" stroke-width="2" opacity="1"/>
		<line x1="572" y1="118" x2="654" y2="118" stroke="#9970ab" stroke-width="1"/>
	</g>
	<text x="577" y="110.75" fill="#000000" font-family="Verdana" font-size="12">CATEGORIE</text>
	<text x="577" y="135.8" fill="#000000" font-family="Verdana" font-size="12">id</text>
	<line x1="577" y1="138" x2="589" y2="138" stroke="#000000" stroke-width="1"/>
	<text x="577" y="152.8" fill="#000000" font-family="Verdana" font-size="12">name</text>
</g>

<!-- Entity OPINION -->
<g>
	<g>
		<rect x="244" y="186" width="66" height="25" fill="#c2a5cf" stroke="none" stroke-width="0" opacity="1"/>
		<rect x="244" y="211" width="66" height="59" fill="#e7d4e8" stroke="none" stroke-width="0" opacity="1"/>
		<rect x="244" y="186" width="66" height="84" fill="none" stroke="#9970ab" stroke-width="2" opacity="1"/>
		<line x1="244" y1="211" x2="310" y2="211" stroke="#9970ab" stroke-width="1"/>
	</g>
	<text x="250" y="203.75" fill="#000000" font-family="Verdana" font-size="12">OPINION</text>
	<text x="249" y="228.8" fill="#000000" font-family="Verdana" font-size="12">id</text>
	<line x1="249" y1="231" x2="261" y2="231" stroke="#000000" stroke-width="1" stroke-dasharray="4"/>
	<text x="249" y="245.8" fill="#000000" font-family="Verdana" font-size="12">recipe_id</text>
	<text x="249" y="262.8" fill="#000000" font-family="Verdana" font-size="12">user_id</text>
</g>
</svg>